<svg width="78" height="61" viewBox="0 0 78 61" fill="none" xmlns="http://www.w3.org/2000/svg">
<g clip-path="url(#clip0_101_397)">
<path fill-rule="evenodd" clip-rule="evenodd" d="M60.9875 13.9959C59.8431 13.9959 58.7014 14.1194 57.5853 14.3634C54.0186 6.02055 45.6925 0.455368 36.6856 0.455368C25.4437 0.455368 16.0964 8.45062 14.2358 19.5555C14.2088 19.554 14.1819 19.554 14.1563 19.554C6.80591 19.554 0.825439 25.5945 0.825439 33.0166C0.825439 40.4373 6.80591 46.4749 14.1563 46.4749H60.9875C69.8526 46.4749 77.0655 39.1889 77.0655 30.2361C77.0655 21.2819 69.8526 13.9959 60.9875 13.9959ZM73.832 30.2361C73.832 37.3958 68.0699 43.2206 60.9875 43.2206H14.1563C8.58857 43.2206 4.05889 38.6428 4.05889 33.0166C4.05889 27.3876 8.58857 22.8083 14.1563 22.8083C14.5279 22.8083 14.9335 22.8367 15.4341 22.8991L17.0764 23.1048L17.2423 21.4479C18.2563 11.3346 26.6151 3.70965 36.6856 3.70965C44.9224 3.70965 52.3154 8.99111 55.0837 16.8516L55.6055 18.3355L57.0961 17.8574C58.3611 17.4545 59.6701 17.2502 60.9875 17.2502C68.0699 17.2502 73.832 23.075 73.832 30.2361Z" fill="white"/>
<path fill-rule="evenodd" clip-rule="evenodd" d="M46.1807 56.799C46.1807 58.4928 44.8093 59.8646 43.1174 59.8646C41.4255 59.8646 40.0527 58.4928 40.0527 56.799C40.0527 55.1066 41.4255 53.7348 43.1174 53.7348C44.8093 53.7348 46.1807 55.1066 46.1807 56.799Z" fill="white"/>
<path fill-rule="evenodd" clip-rule="evenodd" d="M66.3581 55.7824C66.3581 57.4762 64.9853 58.848 63.2935 58.848C61.6016 58.848 60.2288 57.4762 60.2288 55.7824C60.2288 54.09 61.6016 52.7182 63.2935 52.7182C64.9853 52.7182 66.3581 54.09 66.3581 55.7824Z" fill="white"/>
<path fill-rule="evenodd" clip-rule="evenodd" d="M25.9442 57.1116C25.9442 58.8054 24.5729 60.1772 22.881 60.1772C21.1877 60.1772 19.8163 58.8054 19.8163 57.1116C19.8163 55.4192 21.1877 54.0474 22.881 54.0474C24.5729 54.0474 25.9442 55.4192 25.9442 57.1116Z" fill="white"/>
</g>
<defs>
<clipPath id="clip0_101_397">
<rect width="78" height="61" fill="white"/>
</clipPath>
</defs>
</svg>
