<svg width="76" height="84" viewBox="0 0 76 84" fill="none" xmlns="http://www.w3.org/2000/svg">
<g clip-path="url(#clip0_101_380)">
<path fill-rule="evenodd" clip-rule="evenodd" d="M60.0358 14.266C58.9014 14.266 57.7684 14.3864 56.6608 14.6272C53.1198 6.3938 44.8583 0.901596 35.9184 0.901596C24.7633 0.901596 15.4857 8.7934 13.6392 19.7512C13.6124 19.7512 13.5871 19.7512 13.5604 19.7512C6.26719 19.7512 0.332153 25.711 0.332153 33.0358C0.332153 40.3592 6.26719 46.3176 13.5604 46.3176H60.0358C68.8335 46.3176 75.9916 39.1286 75.9916 30.2918C75.9916 21.455 68.8335 14.266 60.0358 14.266ZM72.7827 30.2918C72.7827 37.359 67.0644 43.1074 60.0358 43.1074H13.5604C8.0363 43.1074 3.54104 38.5896 3.54104 33.0358C3.54104 27.4806 8.0363 22.9614 13.5604 22.9614C13.9291 22.9614 14.333 22.9894 14.8285 23.051L16.4596 23.254L16.6229 21.6188C17.6306 11.6396 25.9259 4.1132 35.9184 4.1132C44.0927 4.1132 51.4309 9.3254 54.1767 17.0842L54.6961 18.5486L56.1753 18.0768C57.4307 17.6778 58.7283 17.4762 60.0358 17.4762C67.0644 17.4762 72.7827 23.2246 72.7827 30.2918Z" fill="white"/>
<path fill-rule="evenodd" clip-rule="evenodd" d="M13.7856 55.1558C15.1367 57.61 16.4878 60.0642 17.8389 62.5184C18.7805 64.2264 21.4067 62.7018 20.4651 60.991C19.114 58.5368 17.7615 56.084 16.4104 53.6298C15.4702 51.9218 12.8426 53.4464 13.7856 55.1558Z" fill="white"/>
<path fill-rule="evenodd" clip-rule="evenodd" d="M59.9823 55.1558C61.3334 57.61 62.6845 60.0642 64.037 62.5184C64.9771 64.2264 67.6034 62.7018 66.6618 60.991C65.3107 58.5368 63.9596 56.084 62.6071 53.6298C61.6669 51.9218 59.0407 53.4464 59.9823 55.1558Z" fill="white"/>
<path fill-rule="evenodd" clip-rule="evenodd" d="M56.5876 63.2394C57.9402 65.6936 59.2913 68.1478 60.6424 70.6006C61.5839 72.3086 64.2102 70.784 63.2686 69.0746C61.9175 66.6204 60.5664 64.1662 59.2139 61.7134C58.2737 60.0054 55.6461 61.53 56.5876 63.2394Z" fill="white"/>
<path fill-rule="evenodd" clip-rule="evenodd" d="M3.18078 54.0596C4.5333 56.5124 5.88441 58.9666 7.23552 61.4208C8.17707 63.1288 10.8033 61.6042 9.86174 59.8934C8.51063 57.4406 7.15811 54.9864 5.807 52.5322C4.86685 50.8242 2.23922 52.3488 3.18078 54.0596Z" fill="white"/>
<path fill-rule="evenodd" clip-rule="evenodd" d="M13.7856 65.5396C15.1367 67.9924 16.4878 70.4466 17.8389 72.9008C18.7805 74.6088 21.4067 73.0842 20.4651 71.3734C19.114 68.9206 17.7615 66.4664 16.4104 64.0122C15.4702 62.3042 12.8426 63.8288 13.7856 65.5396Z" fill="white"/>
<path fill-rule="evenodd" clip-rule="evenodd" d="M43.123 46.1664L42.7993 46.3176H43.1948L43.123 46.1664Z" fill="white"/>
<path fill-rule="evenodd" clip-rule="evenodd" d="M28.4522 46.032L27.999 46.3176H28.6352L28.4522 46.032Z" fill="white"/>
<path fill-rule="evenodd" clip-rule="evenodd" d="M49.5323 65.4416H44.6359C43.9871 65.4416 43.3847 65.7622 43.0245 66.2998C42.6642 66.8374 42.598 67.515 42.8485 68.1128L47.4451 79.051L28.7238 59.3026H33.4105C34.117 59.3026 34.7672 58.919 35.1078 58.303C35.4484 57.6856 35.4245 56.9338 35.0445 56.3402L30.4141 49.1008H27.5317L32.5069 56.882H27.5767C26.8013 56.882 26.1032 57.3384 25.7964 58.0454C25.491 58.7524 25.6359 59.5714 26.1665 60.1314L47.5422 82.6798C47.925 83.0844 48.4303 83.293 48.944 83.293C49.3085 83.293 49.6759 83.188 50.0052 82.9752C50.8046 82.46 51.1072 81.4898 50.7399 80.6148L45.3805 67.8608H50.3134C50.9805 67.8608 51.5927 67.5262 51.9502 66.9662C52.3063 66.4048 52.3499 65.7118 52.067 65.1154L44.5079 49.1008H41.8197L49.5323 65.4416Z" fill="white"/>
</g>
<defs>
<clipPath id="clip0_101_380">
<rect width="76" height="84" fill="white"/>
</clipPath>
</defs>
</svg>
