<svg width="96" height="47" viewBox="0 0 96 47" fill="none" xmlns="http://www.w3.org/2000/svg">
<path fill-rule="evenodd" clip-rule="evenodd" d="M78.9489 33.229H85.5803C89.9032 33.229 93.4198 29.6952 93.4198 25.3506C93.4198 21.0046 89.9032 17.4693 85.5803 17.4693C85.2923 17.4693 84.9762 17.4928 84.5878 17.5398L83.3117 17.6984L83.1847 16.4206C82.396 8.61275 75.9064 2.72599 68.0861 2.72599C64.6907 2.72599 61.4857 3.88484 58.8982 5.87059C58.3399 5.23903 57.755 4.64124 57.1377 4.08459C60.2097 1.64646 64.0571 0.214432 68.0861 0.214432C76.8162 0.214432 84.0738 6.38612 85.5182 14.9592C85.5389 14.9592 85.5596 14.9592 85.5803 14.9592C91.2871 14.9592 95.9305 19.621 95.9305 25.3506C95.9305 31.0787 91.2871 35.7406 85.5803 35.7406H78.8898C78.9489 35.2206 78.9902 34.6933 78.9902 34.1558C78.9902 33.8429 78.9696 33.536 78.9489 33.229Z" fill="white"/>
<path fill-rule="evenodd" clip-rule="evenodd" d="M17.0687 14.9842C18.1824 14.9842 19.293 15.1032 20.3785 15.3396C23.8508 7.26737 31.9532 1.88293 40.7202 1.88293C51.6598 1.88293 60.7576 9.61884 62.5683 20.3627C62.5949 20.3627 62.62 20.3627 62.6451 20.3627C69.7993 20.3627 75.6184 26.2054 75.6184 33.3862C75.6184 40.5669 69.7993 46.4081 62.6451 46.4081H17.0687C8.44057 46.4081 1.42075 39.3596 1.42075 30.6969C1.42075 22.0327 8.44057 14.9842 17.0687 14.9842ZM4.56807 30.6969C4.56807 37.625 10.1759 43.2606 17.0687 43.2606H62.6451C68.0639 43.2606 72.4726 38.8323 72.4726 33.3862C72.4726 27.94 68.0639 23.5103 62.6451 23.5103C62.2847 23.5103 61.8889 23.5382 61.4015 23.5984L59.8035 23.7967L59.6425 22.1943C58.6545 12.4095 50.5196 5.03047 40.7202 5.03047C32.7035 5.03047 25.5079 10.1417 22.814 17.7469L22.3059 19.1833L20.8556 18.7207C19.6238 18.33 18.3507 18.1332 17.0687 18.1332C10.1759 18.1332 4.56807 23.7688 4.56807 30.6969Z" fill="white"/>
</svg>
