<svg width="100" height="69" viewBox="0 0 100 69" fill="none" xmlns="http://www.w3.org/2000/svg">
<path fill-rule="evenodd" clip-rule="evenodd" d="M68.2591 40.9285H90.6742C94.4318 40.9285 97.4879 37.5804 97.4879 33.4634C97.4879 29.3447 94.4318 25.9949 90.6742 25.9949C90.4227 25.9949 90.1485 26.0163 89.8121 26.0623L88.703 26.2134L88.5909 25.001C87.906 17.6032 82.2651 12.0241 75.4697 12.0241C69.9106 12.0241 64.9212 15.8881 63.0545 21.6381L62.7015 22.724L61.6954 22.3741C60.8424 22.08 59.9591 21.9305 59.0697 21.9305C58.8939 21.9305 58.7227 21.9469 58.5485 21.9584C58.4636 21.1912 58.3939 20.4059 58.356 19.5894C58.5924 19.573 58.8288 19.55 59.0697 19.55C59.8409 19.55 60.6121 19.6404 61.3651 19.8178C63.7727 13.7162 69.3909 9.64522 75.4697 9.64522C83.056 9.64522 89.3651 15.4938 90.6212 23.6161C90.6379 23.6161 90.656 23.6161 90.6742 23.6161C95.6348 23.6161 99.6697 28.0337 99.6697 33.4634C99.6697 38.8914 95.6348 43.309 90.6742 43.309H71.7333L71.7621 43.3024C71.7621 43.3024 70.2576 42.5878 68.2591 40.9285Z" fill="white"/>
<path fill-rule="evenodd" clip-rule="evenodd" d="M65.9909 63.0726C68.4939 63.1859 71.0545 62.9921 73.6833 62.4006C78.7697 61.2556 82.8742 58.1801 86.4212 54.1666C86.9439 53.5752 87.4394 52.9559 88.006 52.2806C75.8773 53.6639 65.7606 49.6899 58.4939 39.0754C51.2727 28.5266 50.4833 16.9099 55.047 4.75771C54.9833 4.77086 54.9045 4.76757 54.8424 4.80207C47.7985 8.625 42.5576 14.2501 39.9863 22.379C39.1591 22.1161 38.2591 21.8878 37.3485 21.7481C37.4379 21.459 37.5121 21.1731 37.6091 20.8824C41.0606 10.4798 48.356 4.08414 57.6969 0.218498C58.3227 -0.0410735 58.9182 0.0624265 59.3591 0.643998C59.7985 1.22393 59.7879 1.85643 59.4257 2.48893C59.3212 2.668 59.2197 2.85036 59.1197 3.03436C55.8969 8.878 54.3106 15.1915 55.1121 21.9732C56.4833 33.5669 62.0348 42.0834 71.8273 47.0761C77.8879 50.1663 84.2666 50.2829 90.706 48.5481C91.6182 48.3033 92.256 48.4511 92.6379 49.0836C93.0227 49.7211 92.9803 50.3289 92.35 51.1487C90.9273 53.0002 89.5621 54.9207 88.003 56.6326C81.4666 63.802 73.5803 67.0253 64.2621 65.9755C64.1076 65.9459 63.9515 65.9196 63.7954 65.8917C64.5742 65.1146 65.3363 64.1897 65.9909 63.0726Z" fill="white"/>
<path fill-rule="evenodd" clip-rule="evenodd" d="M14.2105 38.4494C15.156 38.4494 16.1015 38.5595 17.0242 38.778C19.9742 31.2997 26.859 26.3104 34.309 26.3104C43.606 26.3104 51.3363 33.4782 52.8757 43.4339C52.8969 43.4322 52.9196 43.4322 52.9408 43.4322C59.0196 43.4322 63.9651 48.8471 63.9651 55.5007C63.9651 62.1526 59.0196 67.5658 52.9408 67.5658H14.2105C6.87872 67.5658 0.913574 61.0338 0.913574 53.0068C0.913574 44.9814 6.87872 38.4494 14.2105 38.4494ZM3.58781 53.0068C3.58781 59.4271 8.35297 64.6481 14.2105 64.6481H52.9408C57.5454 64.6481 61.2908 60.5442 61.2908 55.5007C61.2908 50.4538 57.5454 46.3483 52.9408 46.3483C52.6333 46.3483 52.2984 46.3746 51.8848 46.4304L50.5257 46.6144L50.3893 45.1293C49.5499 36.064 42.6363 29.2281 34.309 29.2281C27.4969 29.2281 21.3818 33.9628 19.0939 41.0106L18.6605 42.3397L17.4287 41.9109C16.3833 41.5495 15.2999 41.3671 14.2105 41.3671C8.35297 41.3671 3.58781 46.5882 3.58781 53.0068Z" fill="white"/>
</svg>
