<svg width="99" height="70" viewBox="0 0 99 70" fill="none" xmlns="http://www.w3.org/2000/svg">
<g clip-path="url(#clip0_101_323)">
<path fill-rule="evenodd" clip-rule="evenodd" d="M83.0972 37.74C82.0015 37.74 80.9075 37.86 79.8382 38.095C76.419 30.0233 68.4421 24.64 59.8101 24.64C49.0378 24.64 40.0807 32.375 38.2986 43.1183C38.2722 43.1183 38.2474 43.1183 38.2227 43.1183C31.1798 43.1183 25.4487 48.9617 25.4487 56.1417C25.4487 63.3217 31.1798 69.1633 38.2227 69.1633H83.0972C91.5923 69.1633 98.5032 62.115 98.5032 53.4517C98.5032 44.7883 91.5923 37.74 83.0972 37.74ZM95.4042 53.4517C95.4042 60.38 89.8827 66.015 83.0972 66.015H38.2227C32.8877 66.015 28.5477 61.5867 28.5477 56.1417C28.5477 50.6967 32.8877 46.265 38.2227 46.265C38.5791 46.265 38.9669 46.2933 39.4471 46.3533L41.0213 46.5533L41.1798 44.95C42.1517 35.165 50.1616 27.7867 59.8101 27.7867C67.7029 27.7867 74.7887 32.8967 77.4388 40.5033L77.9405 41.9383L79.3679 41.4767C80.5807 41.0867 81.8349 40.8883 83.0972 40.8883C89.8827 40.8883 95.4042 46.5233 95.4042 53.4517Z" fill="white"/>
<path fill-rule="evenodd" clip-rule="evenodd" d="M20.2771 22.2683C20.8447 22.895 21.8167 22.9383 22.4371 22.365C23.0576 21.79 23.1005 20.8083 22.5329 20.1817L13.3942 10.1017C12.8266 9.475 11.853 9.43167 11.2342 10.0067C10.6137 10.58 10.5708 11.5617 11.1385 12.1883L20.2771 22.2683Z" fill="white"/>
<path fill-rule="evenodd" clip-rule="evenodd" d="M19.5856 47.56L9.81997 57.0217C9.21271 57.61 9.19126 58.5917 9.77376 59.205C10.3563 59.8183 11.3299 59.8383 11.9371 59.25L21.7028 49.79C22.3084 49.2017 22.3299 48.2183 21.7474 47.605C21.1649 46.9933 20.1913 46.9717 19.5856 47.56Z" fill="white"/>
<path fill-rule="evenodd" clip-rule="evenodd" d="M35.5048 17.8267C36.3448 17.88 37.0741 17.23 37.1269 16.3833L37.9768 2.74166C38.0296 1.89333 37.386 1.15666 36.5477 1.10333C35.7078 1.04999 34.9784 1.69999 34.9256 2.54833L34.0758 16.1883C34.023 17.0367 34.6665 17.7733 35.5048 17.8267Z" fill="white"/>
<path fill-rule="evenodd" clip-rule="evenodd" d="M17.0609 34.1667C17.1269 33.32 16.4932 32.5733 15.655 32.5067L2.16321 31.45C1.32493 31.3833 0.585653 32.0233 0.519647 32.87C0.45529 33.7167 1.0873 34.4633 1.92724 34.53L15.419 35.5867C16.2573 35.6533 16.9965 35.0133 17.0609 34.1667Z" fill="white"/>
<path fill-rule="evenodd" clip-rule="evenodd" d="M40.9307 23.1267C39.2046 22.1633 37.2591 21.2967 35.1666 21.14C27.3713 20.5533 20.5561 26.4833 19.9769 34.3567C19.6023 39.4433 21.929 44.1067 25.7195 46.935C26.1336 46.1933 26.6914 45.3817 27.4356 44.5833C24.4191 42.3317 22.566 38.6217 22.8647 34.5733C23.3267 28.3083 28.7492 23.59 34.9505 24.0567C36.1666 24.1483 35.8366 23.8333 36.9059 24.2783L37.3201 24.4367C37.3201 24.4367 38.6204 23.0883 40.9307 23.1267Z" fill="white"/>
<path fill-rule="evenodd" clip-rule="evenodd" d="M90.6764 33.175C90.6764 26.2383 85.1434 20.595 78.3415 20.595C77.4636 20.595 76.5873 20.69 75.7309 20.8783C72.9949 14.415 66.6071 10.1033 59.6946 10.1033C51.0708 10.1033 43.8976 16.2983 42.4702 24.9C42.4504 24.9 42.4289 24.9 42.4091 24.9C36.7705 24.9 32.1814 29.5783 32.1814 35.3283C32.1814 37.045 32.6022 38.6567 33.3266 40.0833C33.9058 39.7933 34.7177 39.5033 35.7639 39.3367C35.0758 38.16 34.6632 36.7967 34.6632 35.3283C34.6632 30.9683 38.1385 27.42 42.4091 27.42C42.6946 27.42 43.0065 27.4433 43.3893 27.4917L44.65 27.65L44.7771 26.3667C45.556 18.5333 51.9685 12.625 59.6946 12.625C66.0147 12.625 71.688 16.7167 73.8118 22.8067L74.2127 23.9567L75.3563 23.5867C76.3266 23.2733 77.3299 23.115 78.3415 23.115C83.7755 23.115 88.1962 27.6283 88.1962 33.175C88.1962 33.74 88.1418 34.2917 88.0527 34.8317C88.7342 34.9933 89.5873 35.275 90.4042 35.75C90.5758 34.9183 90.6764 34.0583 90.6764 33.175Z" fill="white"/>
</g>
<defs>
<clipPath id="clip0_101_323">
<rect width="99.0099" height="70" fill="white" transform="translate(-0.0100098)"/>
</clipPath>
</defs>
</svg>
