<svg width="99" height="73" viewBox="0 0 99 73" fill="none" xmlns="http://www.w3.org/2000/svg">
<path fill-rule="evenodd" clip-rule="evenodd" d="M83.2153 41.447C82.1608 41.447 81.1079 41.5608 80.0787 41.7866C76.7866 34.0587 69.1073 28.9029 60.7975 28.9029C50.4277 28.9029 41.8054 36.3099 40.0883 46.5961C40.0647 46.5961 40.041 46.5961 40.0157 46.5961C33.2354 46.5961 27.7192 52.1899 27.7192 59.0672C27.7192 65.9411 33.2354 71.5332 40.0157 71.5332H83.2153C91.3932 71.5332 98.0468 64.785 98.0468 56.4901C98.0468 48.1953 91.3932 41.447 83.2153 41.447ZM95.0639 56.4901C95.0639 63.1229 89.7489 68.5198 83.2153 68.5198H40.0157C34.8798 68.5198 30.7021 64.279 30.7021 59.0672C30.7021 53.8519 34.8798 49.6094 40.0157 49.6094C40.3587 49.6094 40.7339 49.6366 41.1953 49.6943L42.7112 49.8845L42.8633 48.3498C43.7979 38.982 51.5093 31.918 60.7975 31.918C68.3958 31.918 75.2166 36.809 77.7702 44.092L78.2518 45.4671L79.6258 45.024C80.7936 44.6505 82.0002 44.4621 83.2153 44.4621C89.7489 44.4621 95.0639 49.8573 95.0639 56.4901Z" fill="white"/>
<path fill-rule="evenodd" clip-rule="evenodd" d="M22.3959 22.1937C22.9857 22.8592 24.0099 22.9203 24.6724 22.3295C25.3365 21.737 25.3974 20.7082 24.8076 20.0427L15.3317 9.32193C14.7436 8.65644 13.7195 8.59532 13.0553 9.18781C12.3928 9.7786 12.332 10.8074 12.9201 11.4746L22.3959 22.1937Z" fill="white"/>
<path fill-rule="evenodd" clip-rule="evenodd" d="M21.2636 48.7063L10.816 58.4713C10.1671 59.0791 10.1299 60.1079 10.7332 60.7615C11.3383 61.4134 12.3641 61.4507 13.013 60.843L23.4606 51.0779C24.1096 50.4719 24.1467 49.4414 23.5434 48.7895C22.9384 48.1376 21.9126 48.1002 21.2636 48.7063Z" fill="white"/>
<path fill-rule="evenodd" clip-rule="evenodd" d="M63.2177 11.4661C62.6127 10.8142 61.5869 10.7768 60.9379 11.3829L50.4904 21.1479C49.8414 21.7557 49.8042 22.7845 50.4092 23.4381C51.0126 24.09 52.0384 24.1273 52.6874 23.5196L63.1349 13.7546C63.7839 13.1485 63.8211 12.118 63.2177 11.4661Z" fill="white"/>
<path fill-rule="evenodd" clip-rule="evenodd" d="M38.5252 17.7814C39.409 17.851 40.1881 17.1805 40.2574 16.2926L41.3711 2.00155C41.4404 1.11367 40.7729 0.329345 39.889 0.259741C39.0051 0.190136 38.2243 0.860718 38.1551 1.7486L37.043 16.0396C36.9737 16.9292 37.6396 17.7118 38.5252 17.7814Z" fill="white"/>
<path fill-rule="evenodd" clip-rule="evenodd" d="M18.8165 34.619C18.8976 33.7328 18.2419 32.94 17.3597 32.8568L3.15019 31.5292C2.26632 31.4477 1.47709 32.1047 1.39597 32.9926C1.31316 33.8805 1.96888 34.6733 2.85106 34.7548L17.0606 36.0824C17.9444 36.1655 18.7336 35.5069 18.8165 34.619Z" fill="white"/>
<path fill-rule="evenodd" clip-rule="evenodd" d="M24.9291 35.1402C25.5155 28.577 31.3071 23.7165 37.8406 24.3056C41.1412 24.6044 44.0057 26.2376 45.9594 28.6262C46.6709 27.9233 47.4466 27.2545 48.2882 26.6399C45.8326 23.6588 42.2431 21.6216 38.1127 21.2498C29.9027 20.5096 22.6239 26.6178 21.8871 34.8651C21.4105 40.1958 23.79 45.1225 27.7429 48.1494C28.1891 47.3787 28.7907 46.5367 29.5901 45.7116C26.445 43.3026 24.5505 39.381 24.9291 35.1402Z" fill="white"/>
</svg>
