<svg width="99" height="68" viewBox="0 0 99 68" fill="none" xmlns="http://www.w3.org/2000/svg">
<g clip-path="url(#clip0_101_520)">
<path fill-rule="evenodd" clip-rule="evenodd" d="M68.8853 63.0894C71.4975 63.2011 74.1699 63.0117 76.915 62.4272C82.2218 61.2988 86.5054 58.2679 90.2072 54.3126C90.7528 53.7297 91.2714 53.1209 91.8628 52.4539C79.2047 53.8188 68.6449 49.9007 61.0627 39.44C53.5247 29.0441 52.7009 17.5958 57.4653 5.61971C57.3973 5.63266 57.3151 5.63104 57.2502 5.66342C49.9005 9.43257 44.4292 14.9746 41.7458 22.9856C40.8824 22.7282 39.9431 22.5015 38.9928 22.3655C39.0861 22.0806 39.1652 21.7972 39.2648 21.5123C42.8669 11.2589 50.4808 4.95752 60.2294 1.14628C60.8824 0.89209 61.5039 0.99247 61.964 1.56723C62.4242 2.13714 62.4115 2.76209 62.0336 3.3838C61.9245 3.5619 61.8185 3.74161 61.7142 3.92133C58.3508 9.68028 56.6952 15.9023 57.5317 22.5857C58.9628 34.0113 64.7566 42.4045 74.9764 47.3248C81.3015 50.3702 87.9586 50.4868 94.6791 48.777C95.631 48.5342 96.2967 48.6815 96.6952 49.3032C97.0968 49.9314 97.0526 50.5321 96.3948 51.3384C94.9099 53.1647 93.4852 55.0573 91.8581 56.7428C85.0364 63.8083 76.8059 66.9865 67.081 65.9503C66.9197 65.9211 66.7569 65.8969 66.594 65.8693C67.4068 65.1019 68.2022 64.192 68.8853 63.0894Z" fill="white"/>
<path fill-rule="evenodd" clip-rule="evenodd" d="M14.8452 38.8248C15.8335 38.8248 16.8187 38.9332 17.7817 39.1486C20.8604 31.777 28.0457 26.8616 35.8209 26.8616C45.5236 26.8616 53.5913 33.9255 55.1979 43.7353C55.22 43.7353 55.2437 43.7353 55.2659 43.7353C61.6099 43.7353 66.7712 49.0701 66.7712 55.6272C66.7712 62.1844 61.6099 67.5175 55.2659 67.5175H14.8452C7.19344 67.5175 0.969536 61.0818 0.969536 53.1711C0.969536 45.2605 7.19344 38.8248 14.8452 38.8248ZM3.76049 53.1711C3.76049 59.4968 8.73203 64.6437 14.8452 64.6437H55.2659C60.0714 64.6437 63.9803 60.5993 63.9803 55.6272C63.9803 50.6535 60.0714 46.6091 55.2659 46.6091C54.9449 46.6091 54.5954 46.635 54.1637 46.6885L52.7453 46.8714L52.603 45.4078C51.727 36.4723 44.5132 29.7354 35.8209 29.7354C28.7115 29.7354 22.3294 34.4015 19.9417 41.3472L19.4895 42.657L18.2039 42.2361C17.1128 41.8783 15.9822 41.6986 14.8452 41.6986C8.73203 41.6986 3.76049 46.8439 3.76049 53.1711Z" fill="white"/>
</g>
<defs>
<clipPath id="clip0_101_520">
<rect width="98.0392" height="68" fill="white" transform="matrix(-1 0 0 1 98.0393 0)"/>
</clipPath>
</defs>
</svg>
