<svg width="80" height="79" viewBox="0 0 80 79" fill="none" xmlns="http://www.w3.org/2000/svg">
<path fill-rule="evenodd" clip-rule="evenodd" d="M62.3927 15.3187C61.2204 15.3187 60.0494 15.446 58.9047 15.6976C55.2451 7.09391 46.7069 1.3547 37.4676 1.3547C25.9375 1.3547 16.3505 9.59996 14.4422 21.052C14.4145 21.0506 14.3884 21.0506 14.3607 21.0506C6.82182 21.0506 0.689453 27.2784 0.689453 34.9326C0.689453 42.5868 6.82182 48.8132 14.3607 48.8132H62.3927C71.4851 48.8132 78.8829 41.2994 78.8829 32.0652C78.8829 22.8325 71.4851 15.3187 62.3927 15.3187ZM75.5665 32.0652C75.5665 39.4503 69.6567 45.4572 62.3927 45.4572H14.3607C8.65018 45.4572 4.00582 40.7362 4.00582 34.9326C4.00582 29.1276 8.65018 24.4051 14.3607 24.4051C14.7418 24.4051 15.1578 24.4359 15.6713 24.5002L17.3571 24.7124L17.5258 23.0036C18.5673 12.5742 27.1389 4.70928 37.4676 4.70928C45.9156 4.70928 53.4996 10.1559 56.3375 18.2636L56.8742 19.7939L58.4015 19.3009C59.6989 18.8854 61.0415 18.6747 62.3927 18.6747C69.6567 18.6747 75.5665 24.6816 75.5665 32.0652Z" fill="white"/>
<path fill-rule="evenodd" clip-rule="evenodd" d="M46.1687 58.4117C46.1687 60.157 44.7607 61.5732 43.0255 61.5732C41.2902 61.5732 39.8822 60.157 39.8822 58.4117C39.8822 56.6664 41.2902 55.2503 43.0255 55.2503C44.7607 55.2503 46.1687 56.6664 46.1687 58.4117Z" fill="white"/>
<path fill-rule="evenodd" clip-rule="evenodd" d="M52.4538 73.5841C52.4538 75.3309 51.0472 76.7456 49.312 76.7456C47.5752 76.7456 46.1687 75.3309 46.1687 73.5841C46.1687 71.8388 47.5752 70.4241 49.312 70.4241C51.0472 70.4241 52.4538 71.8388 52.4538 73.5841Z" fill="white"/>
<path fill-rule="evenodd" clip-rule="evenodd" d="M67.9011 58.4117C67.9011 60.157 66.4945 61.5732 64.7578 61.5732C63.0225 61.5732 61.616 60.157 61.616 58.4117C61.616 56.6664 63.0225 55.2503 64.7578 55.2503C66.4945 55.2503 67.9011 56.6664 67.9011 58.4117Z" fill="white"/>
<path fill-rule="evenodd" clip-rule="evenodd" d="M72.9295 73.5841C72.9295 75.3309 71.523 76.7456 69.7862 76.7456C68.051 76.7456 66.6444 75.3309 66.6444 73.5841C66.6444 71.8388 68.051 70.4241 69.7862 70.4241C71.523 70.4241 72.9295 71.8388 72.9295 73.5841Z" fill="white"/>
<path fill-rule="evenodd" clip-rule="evenodd" d="M26.4523 59.7825C26.4523 61.5278 25.0443 62.944 23.309 62.944C21.5738 62.944 20.1658 61.5278 20.1658 59.7825C20.1658 58.0372 21.5738 56.6211 23.309 56.6211C25.0443 56.6211 26.4523 58.0372 26.4523 59.7825Z" fill="white"/>
<path fill-rule="evenodd" clip-rule="evenodd" d="M32.7375 74.9549C32.7375 76.7002 31.3309 78.1164 29.5942 78.1164C27.8589 78.1164 26.4524 76.7002 26.4524 74.9549C26.4524 73.2096 27.8589 71.7949 29.5942 71.7949C31.3309 71.7949 32.7375 73.2096 32.7375 74.9549Z" fill="white"/>
</svg>
