<?xml version="1.0" encoding="UTF-8"?>
<svg id="Layer_1" data-name="Layer 1" xmlns="http://www.w3.org/2000/svg" viewBox="0 0 2395.16 308.36">
  <defs>
    <style>
      .cls-1 {
        fill-rule: evenodd;
      }

      .cls-1, .cls-2, .cls-3, .cls-4, .cls-5 {
        stroke-width: 0px;
      }

      .cls-3 {
        fill: #9e9e9e;
      }

      .cls-4 {
        fill: #fff;
      }

      .cls-5 {
        fill: #c8102e;
      }
    </style>
  </defs>
  <path class="cls-2" d="m409.72,187.49c-5.46,11.92-12.72,22.44-23.64,30.2-10.22,7.26-21.49,11.62-33.91,13.17-6.21.75-12.42,1.05-18.73.75-9.97-.4-19.58-1.9-28.65-6.11-10.17-4.66-17.93-11.82-22.69-22.19-3.76-8.21-5.06-16.88-5.21-25.74-.1-8.56,1.05-16.98,2.85-25.29,3.46-16.38,9.12-31.81,19.53-45.18,14.02-17.98,32.56-27.8,54.9-30.75,6.36-.85,12.72-.85,19.08-.75,8.97.2,17.63,1.65,25.74,5.46,8.62,4.01,15.08,10.27,18.98,19.03,3.81,8.62,4.51,17.68,3.96,26.95-.05,1.35-.1,2.2,0,2.75h129.53c.1-.25.15-.5.15-.8.4-4.41,1.2-8.77,1.25-13.17.15-5.61.2-11.27-.3-16.88-1-12.07-4.01-23.49-9.37-34.31-6.66-13.47-16.58-24.14-28.7-32.91-16.38-11.87-34.86-18.93-54.34-23.69-13.92-3.41-28.1-5.41-42.42-6.61-9.42-.8-18.93-1.05-28.4-1.35-6.11-.2-12.17.1-18.28.35-8.01.25-16.08.7-24.09,1.35-10.82.8-21.49,2.25-32.11,4.21-15.58,2.8-30.85,6.81-45.58,12.57-25.54,9.97-48.58,23.84-67.47,44.03-5.26,5.66-10.12,11.72-14.53,18.08-10.72,15.48-18.73,32.26-24.09,50.29-6.31,21.19-10.22,42.62-9.47,64.81.25,7.01.85,13.87,2.2,20.74,5.46,27.1,19.78,48.13,43.03,63.11,12.47,8.01,26,13.57,40.17,17.68,21.44,6.21,43.43,8.82,65.61,9.82,14.02.6,28.1.55,42.12-.3,8.26-.5,16.53-1.15,24.74-2.05,12.47-1.4,24.84-3.56,37.11-6.51,19.93-4.81,38.97-12.02,57.05-21.89,16.03-8.72,30-19.98,42.22-33.41,12.22-13.32,21.74-28.45,28.55-45.18,1.65-3.96,3.31-7.91,4.51-12.02h-130.23c-.4.45-.75,1-1.1,1.75Z"/>
  <path class="cls-1" d="m814.12,186.59c-12.37,24.84-32.66,39.12-59.85,43.88-4.71.8-9.37,1.45-14.12,1.25-1.6-.05-3.06.9-4.46.45-11.12-.5-21.94-1.3-32.21-5.66-15.63-6.61-24.74-18.38-28.1-34.86-2.45-12.07-1.4-24.14.85-36.16,2.2-11.87,5.71-23.34,11.22-34.16,9.17-17.88,22.64-31.15,41.32-38.97,7.36-3.06,15.13-4.76,23.04-5.91,4.71-.65,9.47-.9,14.12-.85,11.62.15,23.14,1.25,33.91,6.31,10.57,4.96,18.18,12.67,22.84,23.39,2.96,6.91,4.36,14.07,4.61,21.54.75,21.09-3.86,41.02-13.17,59.75Zm133.63-98.57c-5.56-24.34-18.83-43.28-39.12-57.55-15.03-10.57-31.86-17.08-49.54-21.64-23.84-6.16-48.28-7.91-72.78-8.56-5.86-.15-11.72.1-17.58.35-8.36.3-16.73.7-25.09,1.35-11.67.95-23.24,2.55-34.71,4.76-23.79,4.61-46.63,11.92-67.92,23.74-16.53,9.17-31.56,20.34-44.23,34.51-12.02,13.42-21.34,28.5-28.65,44.83-5.41,12.17-9.32,24.84-12.27,37.77-3.11,13.57-4.81,27.35-5.31,41.27-.15,2.96.25,5.96.3,8.92.3,9.47,1.7,18.68,4.31,27.75,5.21,18.23,14.98,33.66,29.4,45.98,10.72,9.12,22.94,15.68,36.06,20.79,11.87,4.56,24.09,7.76,36.61,10.17,14.68,2.75,29.45,4.06,44.33,4.86,6.41.4,12.82.1,19.23.1,11.32.3,22.54-.25,33.81-1.05,11.67-.85,23.29-2.25,34.76-4.36,25.44-4.71,49.84-12.52,72.63-25.09,16.53-9.12,31.1-20.69,43.63-34.81,17.28-19.53,28.95-42.17,36.31-67.12,4.71-16.13,7.91-32.61,8.77-49.39.65-12.57-.1-25.14-2.96-37.57Z"/>
  <path class="cls-5" d="m121.56,246.75c0,33.56-27.2,60.76-60.76,60.76S0,280.31,0,246.75s27.2-60.81,60.81-60.81,60.76,27.2,60.76,60.81Z"/>
  <path class="cls-4" d="m1401,16.34l-49.94,268.92h117.81l13.72-80.74s152.32,9.47,189.33-33.26l16.18-22.39s-17.08,100.48,55.65,128.93c52.34,15.03,156.62,47.48,258.45-32.41,29.45-42.52,31.1-47.88,31.1-47.88,0,0-8.51,33.16,34.21,77.34,63.96,17.98,75.03,32.91,151.26,19.73,73.03-9.92,125.07-25.09,151.41-75.58,8.31-39.02,14.88-79.34-44.03-104.18-1.65,2.96,57.65-.3,57.65-.3,0,0,12.27-78.99-49.09-91.01-62.56-14.53-107.99-10.82-170.55-9.62-49.09,17.18-72.53,32.11-90.81,49.09-13.47,27-20.59,39.27-20.59,39.27,0,0-4.81-43.28-61.06-71.42-39.82-13.22-118.36-24.74-179.71-7.31-38.02,19.83-60.11,23.34-93.26,59.6l-13.47,10.57s-.1-50.04-42.98-63.66c-19.13-6.66-30.7-9.77-41.32-11.22-19.43-2.65-34.26-1.5-38.42-1.2-23.94,1.7-76.28,1.9-181.57-1.25Z"/>
  <path class="cls-3" d="m1169.89,182.13c0,.45-.1,1-.45.95-.35,0-.4-.6-.3-1.05l.75.1Z"/>
  <path class="cls-1" d="m1902.83,171.47c-7.16,14.22-18.68,22.54-34.36,25.24-3.76.65-7.46.85-11.22.8-5.96.05-11.82-.1-17.63-1.95-8.56-2.75-12.37-8.01-12.97-17.18-.9-12.97,1.5-25.49,6.46-37.52,3.16-7.51,7.46-14.22,13.72-19.68,7.16-6.26,15.58-9.47,24.79-10.82,7.81-1.1,15.63-1.1,23.39.55,5.71,1.25,10.77,3.46,13.82,8.77,1.8,3.21,2.7,6.76,2.85,10.47.55,14.48-2.3,28.3-8.87,41.32Zm2.65-81.34c-12.87-4.01-25.95-4.11-39.12-1.95-22.44,3.71-39.22,15.58-50.24,35.41-8.41,15.23-11.92,31.81-12.72,49.44.1,2.25.15,4.96.45,7.56,1.9,19.43,12.77,31.96,29.5,36.91,12.37,3.66,24.89,3.86,37.52,1.9,23.49-3.61,41.12-15.78,52.04-36.91,9.02-17.58,13.17-36.41,11.27-56.2-1.75-18.43-12.32-31.05-28.7-36.16Z"/>
  <path class="cls-1" d="m2371.8,99.94c-.1,1.55-.65,2.3-2.25,2.1-.55-.1-1.1,0-1.65,0h-105.08c-2.45-.05-2.5-.05-2.7-2.45-.65-6.61-4.01-11.37-9.62-14.68-4.66-2.75-9.77-4.26-15.03-5.11-11.52-1.85-23.14-2.2-34.71-.2-4.86.85-9.47,2.3-13.77,4.71-2.75,1.55-5.16,3.46-6.86,6.16-3.06,5.01-3.26,12.27,4.61,15.78,5.26,2.35,10.92,3.61,16.58,4.51,13.57,2.15,27.15,4.11,40.72,6.11,14.48,2.15,28.95,4.26,43.38,6.36,9.47,1.35,18.88,2.55,28.15,4.91,9.17,2.3,18.03,5.36,26.25,10.07,10.87,6.21,19.18,14.63,23.29,26.7,2.8,8.31,3.26,16.93,2.15,25.59-2.2,17.28-8.21,33.01-19.28,46.68-8.31,10.22-18.58,17.98-30.1,24.19-13.52,7.21-27.9,11.77-42.77,15.13-17.83,4.06-35.96,6.21-54.24,7.46-18.93,1.3-37.87,1.7-56.8.95-18.53-.7-36.91-2.75-54.85-7.76-10.82-3.01-21.19-7.11-30.65-13.27-8.67-5.61-16.03-12.57-20.94-21.84-4.91-9.37-6.71-19.38-5.96-29.9.2-2.75.4-5.51.95-8.26.15-.9.55-1.35,1.45-1.35h56.9v-.25h54.55c.65,0,1.35.05,2,0,1.1-.05,1.5.5,1.55,1.6.1,6.66,3.91,10.82,9.37,13.82,3.76,2.05,7.76,3.31,11.92,4.01,14.12,2.35,28.25,2.2,42.22-1.05,3.91-.9,7.61-2.4,10.92-4.76,3.66-2.6,6.11-6.01,6.96-10.52.9-4.46-.45-8.06-3.76-11.02-2.25-2.05-4.96-3.31-7.76-4.41-6.91-2.55-14.17-3.61-21.44-4.51l-39.22-4.96c-11.32-1.45-22.64-2.8-33.96-4.41-13.07-1.9-25.85-4.96-37.92-10.57-4.66-2.15-9.07-4.71-13.12-7.76-13.22-9.97-20.09-23.34-19.83-39.77.3-20.14,6.61-38.32,19.58-53.89,9.22-11.07,20.89-18.73,34.01-24.39,12.87-5.51,26.4-8.92,40.17-11.32,25.8-4.36,51.79-5.16,77.89-4.71,15.63.25,31.2,1.25,46.68,3.41,16.18,2.3,32.06,5.71,46.98,12.62,6.46,3.01,12.47,6.71,17.83,11.47,10.62,9.47,16.23,21.44,17.33,35.51.35,4.41.25,8.87-.1,13.27Zm-335.04,48.23c-2.6,15.78-6.91,31.1-13.62,45.68-14.78,32.21-38.72,55.15-70.67,70.02-16.78,7.76-34.41,12.82-52.59,15.88-19.18,3.26-36.46,4.51-57.25,4.51-19.13-.1-39.42-1.35-59.45-5.71-14.02-3.06-27.55-7.46-40.12-14.58-22.74-12.77-37.06-31.76-42.02-57.55-1.95-10.12-2.3-20.29-1.5-30.5,1.55-20.89,6.26-41.12,14.78-60.36,14.43-32.61,38.27-56,70.37-71.17,17.53-8.31,36.06-13.42,55.15-16.68,23.59-3.96,47.38-4.81,71.22-3.86,20.69.85,41.07,3.46,60.86,9.87,14.22,4.61,27.5,11.12,38.92,20.99,14.68,12.72,23.19,28.85,26.55,47.83,2.65,15.23,1.85,30.45-.6,45.63Zm21.84,7.86c8.67,11.87,12.97,15.53,23.04,22.89-2.2.75-22.39.95-28.55.3,2-7.51,4.01-15.08,5.51-23.19Zm-365.29-50.14c-2.25,15.03-7.41,28.95-16.53,41.22-10.47,14.07-24.19,23.89-40.12,30.85-12.87,5.66-26.35,8.97-40.27,10.77-11.22,1.5-22.54,1.95-33.86,1.9-26.8-.05-53.64,0-80.49,0h-1.3c-3.06.05-2.7-.6-3.41,2.7-1.05,4.86-1.9,9.77-2.85,14.68-4.36,22.39-8.77,44.78-13.07,67.17-.35,1.8-.8,2.6-2.91,2.6-30.45-.05-60.96-.05-91.46-.05-.55,0-1.05-.1-1.75-.15.15-3.46,1.05-6.66,1.7-9.87,5.21-26.85,10.47-53.69,15.68-80.54l16.38-83.75,13.57-69.77.1-.65c.85-3.56.45-2.96,3.56-2.96l52.89-.05h127.37c13.77,0,27.45.8,40.97,3.71,10.92,2.35,21.34,5.91,30.8,11.97,12.02,7.71,20.49,18.13,24.09,32.16,2.4,9.27,2.3,18.68.9,28.05Zm700.52-28.45c-1.65-9.82-5.01-19.03-10.42-27.4-8.67-13.32-20.59-23.04-34.71-30-14.68-7.26-30.3-11.52-46.38-14.27-9.32-1.6-18.73-2.7-28.2-3.56-9.22-.85-18.48-1.4-27.75-1.55-11.92-.2-23.89-.45-35.86.25-7.26.45-14.53.75-21.79,1.35-13.87,1.15-27.6,3.11-41.17,6.21-12.52,2.91-24.69,6.76-36.31,12.32-13.92,6.66-26.2,15.58-36.51,27.15-6.31,7.06-11.42,14.88-15.43,23.44-1.35,2.85-2.6,5.76-3.91,8.56-.65-.05-.65-.45-.7-.7-5.96-16.08-15.18-29.95-28.15-41.22-14.53-12.57-31.3-21.09-49.54-26.8-22.49-7.06-45.68-9.82-69.12-10.57-14.22-.45-28.5-.3-42.77.95-10.77.9-21.49,2.1-32.11,4.01-23.54,4.21-46.08,11.27-67.17,22.74-11.72,6.31-22.54,13.97-32.66,22.64-6.26,5.31-11.67,11.47-16.88,17.78-.5.6-.75,1.75-2.05,1.45-4.26-15.38-13.17-27.85-25.44-37.87-10.82-8.87-23.29-14.73-36.71-18.63-16.88-4.96-34.21-6.71-51.69-6.71-113.3-.1-226.65-.05-339.94-.05-.55,0-1.1.05-1.65,0-1.7-.25-2.6.6-3.26,2.1-1.65,3.61-3.46,7.16-5.21,10.72-7.86,15.88-15.83,31.66-23.49,47.63-7.61,15.73-15.53,31.3-23.29,46.98l-18.58,37.47-15.08,30.25c-.45.2-.4.65-.5,1.05.05-.4.1-.8-.25-1.15-.2-1.75-.45-3.46-.55-5.21-.55-7.96-1.35-15.83-1.95-23.74-.9-10.67-1.7-21.34-2.7-31.96-.85-9.12-1.45-18.23-2.2-27.35l-1.95-23.74c-.5-6.36-.9-12.77-1.45-19.13-.75-9.02-1.6-17.98-2.4-27-.45-4.81-.8-9.67-1.3-14.48-.25-2.4-.35-2.45-2.6-2.45h-162.63c-2.65,0-2.65.05-3.16,2.6l-6.11,31.2-12.37,62.96c-2.05,10.52-4.16,20.99-6.16,31.51-2.55,13.42-4.96,26.9-7.56,40.32-2.75,14.27-5.66,28.55-8.46,42.82l-13.02,66.57-2.5,13.02h104.68c.05-.15.2-.2.2-.4.05-.65.3-1.3.45-1.95,3.16-16.33,6.31-32.71,9.52-49.04,3.06-15.48,6.16-30.95,9.22-46.43,3.91-19.78,7.81-39.57,11.62-59.4,2.65-13.52,5.11-27.1,7.71-40.62,1.6-8.31,3.26-16.58,4.91-24.84.5,3.21,1.2,7.96,1.9,13.77,1.05,8.16,1.65,14.22,1.9,16.78.65,7.06.2,1.7,4.56,41.72l3.96,37.11c.95,9.12,1.8,18.23,2.75,27.3,1.5,13.92,3.06,27.8,4.56,41.72,1.55,14.33,3.06,28.7,4.56,43.03.1.55.1.95.2,1.25h88.76c.25-.3.5-.65.7-1.1,4.21-8.51,8.62-16.98,12.87-25.49,10.47-21.09,20.94-42.22,31.45-63.26,6.81-13.62,8.41-16.78,12.92-25.69,0,0,4.71-9.32,10.37-20.59,5.56-11.22,42.82-86.85,43.63-86.55.5.15-4.96,28.7-11.92,61.56l-2.45,12.72c-2.25,11.57-4.51,23.14-6.66,34.71-3.21,17.48-6.76,34.86-10.17,52.29l-11.42,58.8c-.25,1.25-.4,2.05-.35,2.6h219.53c.3-.35.5-.8.6-1.45.8-4.81,1.8-9.57,2.7-14.33l9.22-46.38c1.35-6.71,2.75-13.42,3.91-20.14.35-1.9,1.15-2.45,2.85-2.25.65.05,1.35,0,2,0h71.53c4.76,0,9.47-.25,14.22-.6,12.37-.85,24.49-2.85,36.46-6.06,18.53-4.91,35.51-12.92,50.69-24.64.55-.4.9-1.3,1.95-.8.3,4.51.15,9.02.4,13.57.65,10.77,2.65,21.19,6.16,31.4,6.06,17.78,16.33,32.81,30.65,44.88,12.57,10.62,27,17.98,42.47,23.44,19.73,6.91,40.17,10.07,60.91,11.67,9.37.7,18.78,1.05,28.15.9,9.62-.15,19.23-.45,28.8-1.2,10.92-.85,21.74-2.2,32.46-4.16,26.15-4.66,50.84-13.17,73.78-26.65,15.23-8.97,28.3-20.44,39.82-33.76,2.75-3.21,5.36-6.56,8.16-9.97.35,1.35.65,2.4.9,3.46,1.35,5.96,3.46,11.67,6.21,17.08,6.36,12.42,15.73,22.04,27.25,29.8,15.08,10.12,31.86,16.13,49.44,20.09,20.89,4.66,42.12,5.91,63.46,6.41,5.06.15,10.12-.05,15.23-.3,7.16-.4,14.38-.25,21.54-.7,8.72-.5,17.38-1.15,26.05-2,12.97-1.3,25.8-3.26,38.52-6.11,19.38-4.31,38.07-10.62,55.4-20.64,16.08-9.32,29.25-21.64,39.22-37.37,7.66-12.12,12.67-25.24,15.48-39.22,2.15-10.72,2.85-21.49,1.15-32.26-2.75-17.53-11.17-32.01-24.84-43.33-.45-.4-1.2-.55-1-1.65h18.88c2.85,0,5.76-.05,8.62.05,1.65,0,2.7-.2,2.7-2.3.05-2.3.55-4.56.85-6.86.9-6.76,1.8-13.57,2.15-20.39.3-5.96-.3-11.92-1.25-17.78Z"/>
  <path class="cls-1" d="m1557.52,111.71c-1.6,2-4.21,3.36-7.86,4.11-3.56.7-7.31.9-11.07,1.05-1.45.05-2.45.05-4.91.05h-24.24l2.91-15.68.9-.05c9.32,0,18.68,0,28,.05,3.61,0,7.26.1,10.82.65l1.65.3c3.71.75,5.51,2.15,5.66,4.36.1,1.8-.55,3.51-1.85,5.16Zm14.68-25.19c-1-.4-2.1-.7-3.16-1-6.66-1.85-13.52-2.25-20.39-2.3-17.63-.15-35.21-.05-52.84-.05-2.45,0-2.45.05-2.96,2.45l-5.11,26-4.86,25.24h3.66l47.83-.05c3.11,0,6.21,0,9.32-.2,7.06-.45,14.12-1.15,20.84-3.61,6.96-2.55,11.87-7.21,14.83-13.92,2.5-5.61,3.71-11.57,3.51-17.73-.25-7.51-3.66-12.22-10.67-14.83Z"/>
</svg>